<?xml version="1.0" standalone="no"?>
<!DOCTYPE svg PUBLIC "-//W3C//DTD SVG 20010904//EN"
 "http://www.w3.org/TR/2001/REC-SVG-20010904/DTD/svg10.dtd">
<svg version="1.0" xmlns="http://www.w3.org/2000/svg"
 width="160.000000pt" height="160.000000pt" viewBox="0 0 160.000000 160.000000"
 preserveAspectRatio="xMidYMid meet">

<g transform="translate(0.000000,160.000000) scale(0.100000,-0.100000)"
fill="#000000" stroke="none">
<path d="M1020 1420 c-19 -11 -45 -19 -58 -20 -51 -1 -82 -29 -123 -113 -46
-96 -49 -128 -13 -156 l26 -21 -25 -43 c-29 -49 -91 -99 -217 -177 -221 -136
-288 -251 -289 -497 -1 -96 -3 -113 -17 -113 -40 0 -94 90 -94 158 0 32 -41
49 -76 33 -26 -11 -26 -14 -22 -76 13 -151 117 -235 293 -235 l72 0 5 85 c7
106 41 182 100 225 21 16 45 31 51 33 7 2 2 15 -14 34 -25 29 -26 37 -27 147
0 68 4 116 9 116 12 0 69 -28 88 -44 25 -20 102 -14 129 11 22 20 78 40 88 31
2 -3 0 -34 -5 -69 -5 -35 -5 -74 0 -86 12 -33 0 -79 -28 -110 -24 -25 -25 -34
-28 -152 -2 -69 -4 -130 -4 -136 -1 -5 2 -27 5 -47 l6 -38 174 0 c171 0 174 0
189 24 22 33 6 72 -34 81 -27 6 -31 12 -40 58 -6 29 -24 117 -40 197 l-29 145
21 35 c19 30 23 56 28 185 10 211 21 235 114 235 56 0 80 21 124 109 40 79 34
92 -57 120 -38 11 -77 30 -88 42 -44 50 -132 63 -194 29z"/>
<path d="M644 625 c-4 -9 -2 -21 4 -27 15 -15 44 -1 40 19 -4 23 -36 29 -44 8z"/>
<path d="M804 625 c-4 -9 -2 -21 4 -27 15 -15 44 -1 40 19 -4 23 -36 29 -44 8z"/>
</g>
</svg>
